<?xml version="1.0" encoding="utf-8"?>
<!-- Generator: Adobe Illustrator 27.2.0, SVG Export Plug-In . SVG Version: 6.00 Build 0)  -->
<svg version="1.1" id="Layer_1" xmlns="http://www.w3.org/2000/svg" xmlns:xlink="http://www.w3.org/1999/xlink" x="0px" y="0px"
	 viewBox="0 0 612 792" style="enable-background:new 0 0 612 792;" xml:space="preserve">
<style type="text/css">
	.st0{fill:#221D8A;}
	.st1{fill:#FFFFFF;}
	.st2{fill:#3C891F;}
</style>
<path class="st0" d="M116.66,451.47l4.43,19.98l3.21-0.36l5.35,24.64c0,0,16.13,2.68,19.95-6.04c0,0,3.06-4.2-8.79-7.41
	c0,0-4.05-0.22,8.64-8.48c0,0,9.1-9.86-1.22-19.57c-10.32-9.71-18.96-6.19-18.96-6.19L116.66,451.47z"/>
<path class="st1" d="M136.61,467.52c0,0-1.87,12.34,0.73,12.65s4.89-6.32,4.89-6.32s0.69-3.54-1.68-5.29
	C138.18,466.79,136.61,467.52,136.61,467.52z"/>
<ellipse class="st1" cx="136.86" cy="489.28" rx="1.95" ry="3.23"/>
<path class="st0" d="M157.94,455.9c0,0,6.96-7.41,17.35-6.57l3.59,45.4l-10.93,4.05l-2.06-6.96l-8.56-0.61l-1.22,5.89l-3.36,0.69
	L157.94,455.9z"/>
<polygon class="st1" points="160.54,475.88 157.76,488.2 164.67,487.66 "/>
<polygon class="st0" points="184,452.46 191.72,452.46 193.52,477.95 203.8,477.95 207.27,494.96 183.27,495.65 "/>
<polygon class="st0" points="211.9,452.46 219.62,452.46 221.41,477.95 231.69,477.95 235.17,494.96 211.17,495.65 "/>
<ellipse transform="matrix(0.9239 -0.3826 0.3826 0.9239 -161.2187 133.7392)" class="st2" cx="255.62" cy="472.18" rx="19.5" ry="27.91"/>
<path class="st1" d="M245.06,466.98c-0.29-3.49-2.37-6.2-4.77-6.39c0.57-0.49,0.94-1.27,0.94-2.17c0-1.48-1-2.68-2.24-2.68
	s-2.24,1.2-2.24,2.68c0,1.23,0.7,2.26,1.65,2.57c-1.89,1-3.1,3.71-2.85,6.78c0.31,3.75,2.7,6.61,5.32,6.39
	S245.38,470.73,245.06,466.98z"/>
<path class="st0" d="M293.05,459.63c0,0-3.44-6.36-8.6-6.48c-5.16-0.11-10.55,5.56-10.55,5.56l0.85,0.79
	c0.37-0.65,0.97-1.07,1.65-1.07c1.12,0,2.04,1.15,2.04,2.58c0,0.58-0.15,1.1-0.4,1.53l2.01,1.86c1.87,0.84,3.21,3.09,3.21,5.75
	c0,3.15-1.88,5.74-4.3,6.07l-0.23,0.84l-0.86,10.55c0,0,6.65,6.42,14.62-2.81C300.45,475.56,293.05,459.63,293.05,459.63z"/>
<path class="st0" d="M299.07,462.44l8.43,35.2h3.84l0.63-14.85c0,0,2.81,1.38,11.06,13.59l5.1-1.09l2.24-44.66h-7.57l-0.34,10.95
	c0,0-0.34,4.64-3.67-0.63l-4.07-7.17L299.07,462.44z"/>
<path class="st0" d="M381.16,449.83l5.27,20.1c0,0-15.52,9.17-19.18,15.29s-0.99,8.48-0.99,8.48s2.52,1.22,6.57,0.84l0.38,5.81
	c0,0-15.52,0.76-19.72-11.46s7.64-26.98,7.64-26.98S371.22,450.98,381.16,449.83z"/>
<path class="st0" d="M393.39,476.13l6.88,24.24h5.2l7.18-24.24C412.65,476.13,402.87,483.92,393.39,476.13z"/>
<circle class="st2" cx="403.32" cy="462.22" r="13.91"/>
<polygon class="st0" points="419.99,457.1 445.59,449.83 447.04,472.61 442.92,473.99 441.92,498.29 434.05,499.44 427.55,478.96 
	421.21,479.64 "/>
<polygon class="st0" points="448.63,457.29 462.79,454.25 468.81,472.18 470.99,472.18 477.24,451.9 495.52,456.08 477.41,478.61 
	472.99,497.36 468.18,497.36 464.17,479.7 "/>
</svg>
